<svg xmlns:x="http://ns.adobe.com/Extensibility/1.0/" xmlns:i="http://ns.adobe.com/AdobeIllustrator/10.0/" xmlns:graph="http://ns.adobe.com/Graphs/1.0/" xmlns="http://www.w3.org/2000/svg" xmlns:xlink="http://www.w3.org/1999/xlink" version="1.1" x="0px" y="0px" viewBox="0 0 100 125" enable-background="new 0 0 100 100" xml:space="preserve"><metadata><sfw xmlns="http://ns.adobe.com/SaveForWeb/1.0/"><slices/><sliceSourceBounds width="1447.2" height="1444.2" x="1" y="-1446.1" bottomLeftOrigin="true"/></sfw></metadata><path d="M97.3,13.3L64.6,92.9C63.3,96,60.4,98,57.1,98c-0.1,0-0.2,0-0.3,0c-3.4-0.1-6.4-2.3-7.5-5.5L40,65.2  c-0.3-0.8-0.1-1.8,0.5-2.4l29.2-34.4c0.9-1.1,2.5-1.2,3.5-0.3c1.1,0.9,1.2,2.5,0.3,3.5L45.2,65l8.8,25.9c0.7,1.9,2.4,2.1,2.9,2.1  c0.5,0,2.2-0.1,3-2l32.8-79.6C93.5,9.6,92.4,8.3,92,8c-0.3-0.3-1.6-1.4-3.4-0.7L9,40c-1.9,0.8-2,2.5-2,3s0.2,2.2,2.1,2.9l27.2,9.3  c1.3,0.4,2,1.9,1.6,3.2c-0.4,1.3-1.9,2-3.2,1.6L7.5,50.7c-3.2-1.1-5.4-4-5.5-7.5s1.9-6.5,5.1-7.8L86.7,2.7c3.1-1.3,6.5-0.6,8.9,1.8  S98.6,10.2,97.3,13.3z"/><text x="0" y="115" fill="#000000" font-size="5px" font-weight="bold" font-family="'Helvetica Neue', Helvetica, Arial-Unicode, Arial, Sans-serif">Created by Gregor Cresnar</text><text x="0" y="120" fill="#000000" font-size="5px" font-weight="bold" font-family="'Helvetica Neue', Helvetica, Arial-Unicode, Arial, Sans-serif">from the Noun Project</text></svg>